<svg xmlns="http://www.w3.org/2000/svg" xmlns:xlink="http://www.w3.org/1999/xlink" width="500" zoomAndPan="magnify" viewBox="0 0 375 374.999991" height="500" preserveAspectRatio="xMidYMid meet" version="1.0"><defs><g/><clipPath id="e4e3ed1482"><path d="M 151.300781 104.367188 L 223 104.367188 L 223 143 L 151.300781 143 Z M 151.300781 104.367188 " clip-rule="nonzero"/></clipPath><clipPath id="92bf1dda0c"><path d="M 151.300781 134 L 223 134 L 223 158 L 151.300781 158 Z M 151.300781 134 " clip-rule="nonzero"/></clipPath><clipPath id="dedbd350dd"><path d="M 151.300781 149 L 223 149 L 223 173 L 151.300781 173 Z M 151.300781 149 " clip-rule="nonzero"/></clipPath><clipPath id="643928d084"><path d="M 151.300781 164 L 223 164 L 223 187.617188 L 151.300781 187.617188 Z M 151.300781 164 " clip-rule="nonzero"/></clipPath></defs><rect x="-37.5" width="450" fill="#ffffff" y="-37.499999" height="449.999989" fill-opacity="1"/><rect x="-37.5" width="450" fill="#000000" y="-37.499999" height="449.999989" fill-opacity="1"/><g fill="#ffffff" fill-opacity="1"><g transform="translate(59.01152, 240.140269)"><g><path d="M 7.109375 0 L 7.109375 -25.34375 L 0.890625 -25.34375 L 0.890625 -30.796875 L 7.109375 -34.21875 L 7.109375 -36.46875 C 7.109375 -39.882812 8.050781 -42.628906 9.9375 -44.703125 C 11.820312 -46.773438 14.90625 -47.8125 19.1875 -47.8125 L 28.546875 -47.8125 L 28.546875 -39.34375 L 17.078125 -39.34375 L 17.078125 -34.15625 L 26.84375 -34.15625 L 26.84375 -25.34375 L 18.84375 -25.34375 L 18.84375 0 Z M 7.109375 0 "/></g></g></g><g fill="#ffffff" fill-opacity="1"><g transform="translate(84.486608, 240.140269)"><g><path d="M 3.28125 -38.3125 L 3.28125 -45.421875 L 15.4375 -45.421875 L 15.4375 -38.3125 Z M 3.484375 0 L 3.484375 -34.15625 L 15.234375 -34.15625 L 15.234375 0 Z M 3.484375 0 "/></g></g></g><g fill="#ffffff" fill-opacity="1"><g transform="translate(100.194903, 240.140269)"><g><path d="M 3.484375 0 L 3.484375 -47.8125 L 15.234375 -47.8125 L 15.234375 0 Z M 3.484375 0 "/></g></g></g><g fill="#ffffff" fill-opacity="1"><g transform="translate(115.903195, 240.140269)"><g><path d="M 21.375 -6.765625 C 23.101562 -6.765625 24.515625 -7.101562 25.609375 -7.78125 C 26.703125 -8.46875 27.476562 -9.3125 27.9375 -10.3125 L 39.34375 -10.3125 C 38.976562 -8.351562 38.144531 -6.507812 36.84375 -4.78125 C 35.550781 -3.050781 33.640625 -1.640625 31.109375 -0.546875 C 28.578125 0.546875 25.242188 1.09375 21.109375 1.09375 C 17.640625 1.09375 14.695312 0.59375 12.28125 -0.40625 C 9.875 -1.40625 7.929688 -2.769531 6.453125 -4.5 C 4.972656 -6.238281 3.898438 -8.195312 3.234375 -10.375 C 2.578125 -12.5625 2.25 -14.816406 2.25 -17.140625 C 2.25 -20.460938 2.910156 -23.488281 4.234375 -26.21875 C 5.554688 -28.957031 7.601562 -31.144531 10.375 -32.78125 C 13.15625 -34.414062 16.734375 -35.234375 21.109375 -35.234375 C 24.609375 -35.234375 27.53125 -34.734375 29.875 -33.734375 C 32.21875 -32.734375 34.09375 -31.367188 35.5 -29.640625 C 36.914062 -27.910156 37.929688 -25.953125 38.546875 -23.765625 C 39.160156 -21.578125 39.46875 -19.300781 39.46875 -16.9375 C 39.46875 -15.800781 39.398438 -14.84375 39.265625 -14.0625 L 13.65625 -14.0625 C 14.019531 -11.332031 14.847656 -9.429688 16.140625 -8.359375 C 17.441406 -7.296875 19.1875 -6.765625 21.375 -6.765625 Z M 21.234375 -27.53125 C 19.140625 -27.53125 17.46875 -27.039062 16.21875 -26.0625 C 14.96875 -25.082031 14.160156 -23.363281 13.796875 -20.90625 L 28.34375 -20.90625 C 28.15625 -23.039062 27.492188 -24.675781 26.359375 -25.8125 C 25.222656 -26.957031 23.515625 -27.53125 21.234375 -27.53125 Z M 21.234375 -27.53125 "/></g></g></g><g fill="#ffffff" fill-opacity="1"><g transform="translate(154.423445, 240.140269)"><g><path d="M 28.953125 0 L 20.078125 -12.21875 L 15.234375 -7.515625 L 15.234375 0 L 3.484375 0 L 3.484375 -47.8125 L 15.234375 -47.8125 L 15.234375 -18.78125 C 15.828125 -19.644531 16.429688 -20.472656 17.046875 -21.265625 C 17.660156 -22.066406 18.257812 -22.832031 18.84375 -23.5625 L 28.28125 -34.15625 L 42.140625 -34.15625 L 42.140625 -33.875 L 27.53125 -19.53125 L 42.828125 0 Z M 28.953125 0 "/></g></g></g><g fill="#ffffff" fill-opacity="1"><g transform="translate(194.036501, 240.140269)"><g><path d="M 21.375 -6.765625 C 23.101562 -6.765625 24.515625 -7.101562 25.609375 -7.78125 C 26.703125 -8.46875 27.476562 -9.3125 27.9375 -10.3125 L 39.34375 -10.3125 C 38.976562 -8.351562 38.144531 -6.507812 36.84375 -4.78125 C 35.550781 -3.050781 33.640625 -1.640625 31.109375 -0.546875 C 28.578125 0.546875 25.242188 1.09375 21.109375 1.09375 C 17.640625 1.09375 14.695312 0.59375 12.28125 -0.40625 C 9.875 -1.40625 7.929688 -2.769531 6.453125 -4.5 C 4.972656 -6.238281 3.898438 -8.195312 3.234375 -10.375 C 2.578125 -12.5625 2.25 -14.816406 2.25 -17.140625 C 2.25 -20.460938 2.910156 -23.488281 4.234375 -26.21875 C 5.554688 -28.957031 7.601562 -31.144531 10.375 -32.78125 C 13.15625 -34.414062 16.734375 -35.234375 21.109375 -35.234375 C 24.609375 -35.234375 27.53125 -34.734375 29.875 -33.734375 C 32.21875 -32.734375 34.09375 -31.367188 35.5 -29.640625 C 36.914062 -27.910156 37.929688 -25.953125 38.546875 -23.765625 C 39.160156 -21.578125 39.46875 -19.300781 39.46875 -16.9375 C 39.46875 -15.800781 39.398438 -14.84375 39.265625 -14.0625 L 13.65625 -14.0625 C 14.019531 -11.332031 14.847656 -9.429688 16.140625 -8.359375 C 17.441406 -7.296875 19.1875 -6.765625 21.375 -6.765625 Z M 21.234375 -27.53125 C 19.140625 -27.53125 17.46875 -27.039062 16.21875 -26.0625 C 14.96875 -25.082031 14.160156 -23.363281 13.796875 -20.90625 L 28.34375 -20.90625 C 28.15625 -23.039062 27.492188 -24.675781 26.359375 -25.8125 C 25.222656 -26.957031 23.515625 -27.53125 21.234375 -27.53125 Z M 21.234375 -27.53125 "/></g></g></g><g fill="#ffffff" fill-opacity="1"><g transform="translate(232.55676, 240.140269)"><g><path d="M 21.375 -6.765625 C 23.101562 -6.765625 24.515625 -7.101562 25.609375 -7.78125 C 26.703125 -8.46875 27.476562 -9.3125 27.9375 -10.3125 L 39.34375 -10.3125 C 38.976562 -8.351562 38.144531 -6.507812 36.84375 -4.78125 C 35.550781 -3.050781 33.640625 -1.640625 31.109375 -0.546875 C 28.578125 0.546875 25.242188 1.09375 21.109375 1.09375 C 17.640625 1.09375 14.695312 0.59375 12.28125 -0.40625 C 9.875 -1.40625 7.929688 -2.769531 6.453125 -4.5 C 4.972656 -6.238281 3.898438 -8.195312 3.234375 -10.375 C 2.578125 -12.5625 2.25 -14.816406 2.25 -17.140625 C 2.25 -20.460938 2.910156 -23.488281 4.234375 -26.21875 C 5.554688 -28.957031 7.601562 -31.144531 10.375 -32.78125 C 13.15625 -34.414062 16.734375 -35.234375 21.109375 -35.234375 C 24.609375 -35.234375 27.53125 -34.734375 29.875 -33.734375 C 32.21875 -32.734375 34.09375 -31.367188 35.5 -29.640625 C 36.914062 -27.910156 37.929688 -25.953125 38.546875 -23.765625 C 39.160156 -21.578125 39.46875 -19.300781 39.46875 -16.9375 C 39.46875 -15.800781 39.398438 -14.84375 39.265625 -14.0625 L 13.65625 -14.0625 C 14.019531 -11.332031 14.847656 -9.429688 16.140625 -8.359375 C 17.441406 -7.296875 19.1875 -6.765625 21.375 -6.765625 Z M 21.234375 -27.53125 C 19.140625 -27.53125 17.46875 -27.039062 16.21875 -26.0625 C 14.96875 -25.082031 14.160156 -23.363281 13.796875 -20.90625 L 28.34375 -20.90625 C 28.15625 -23.039062 27.492188 -24.675781 26.359375 -25.8125 C 25.222656 -26.957031 23.515625 -27.53125 21.234375 -27.53125 Z M 21.234375 -27.53125 "/></g></g></g><g fill="#ffffff" fill-opacity="1"><g transform="translate(271.07702, 240.140269)"><g><path d="M 27.109375 -35.234375 C 30.847656 -35.234375 33.863281 -34.398438 36.15625 -32.734375 C 38.457031 -31.078125 40.128906 -28.859375 41.171875 -26.078125 C 42.222656 -23.304688 42.75 -20.28125 42.75 -17 C 42.75 -13.863281 42.222656 -10.914062 41.171875 -8.15625 C 40.128906 -5.40625 38.457031 -3.175781 36.15625 -1.46875 C 33.863281 0.238281 30.847656 1.09375 27.109375 1.09375 C 24.203125 1.09375 21.769531 0.570312 19.8125 -0.46875 C 17.851562 -1.519531 16.28125 -2.957031 15.09375 -4.78125 L 15.09375 13.65625 L 3.34375 13.65625 L 3.34375 -34.15625 L 15.09375 -34.15625 L 15.09375 -29.5 C 16.28125 -31.320312 17.851562 -32.734375 19.8125 -33.734375 C 21.769531 -34.734375 24.203125 -35.234375 27.109375 -35.234375 Z M 23.15625 -8.0625 C 26.070312 -8.0625 28.109375 -8.765625 29.265625 -10.171875 C 30.421875 -11.585938 31 -13.890625 31 -17.078125 C 31 -20.265625 30.421875 -22.5625 29.265625 -23.96875 C 28.109375 -25.382812 26.070312 -26.09375 23.15625 -26.09375 C 20.144531 -26.09375 18.046875 -25.351562 16.859375 -23.875 C 15.679688 -22.394531 15.09375 -20.128906 15.09375 -17.078125 C 15.09375 -14.023438 15.679688 -11.757812 16.859375 -10.28125 C 18.046875 -8.800781 20.144531 -8.0625 23.15625 -8.0625 Z M 23.15625 -8.0625 "/></g></g></g><g clip-path="url(#e4e3ed1482)"><path fill="#ffffff" d="M 220.699219 120.050781 L 189.058594 105.199219 C 187.984375 104.699219 186.746094 104.699219 185.675781 105.199219 L 154.035156 120.050781 C 152.640625 120.707031 151.75 122.105469 151.75 123.652344 C 151.75 125.191406 152.640625 126.59375 154.035156 127.25 L 185.675781 142.101562 C 186.210938 142.355469 186.789062 142.480469 187.367188 142.480469 C 187.945312 142.480469 188.523438 142.355469 189.058594 142.101562 L 220.699219 127.25 C 222.09375 126.59375 222.984375 125.191406 222.984375 123.652344 C 222.984375 122.105469 222.09375 120.707031 220.699219 120.050781 Z M 187.367188 134.109375 L 165.089844 123.652344 L 187.367188 113.195312 L 209.644531 123.652344 Z M 187.367188 134.109375 " fill-opacity="1" fill-rule="nonzero"/></g><g clip-path="url(#92bf1dda0c)"><path fill="#ffffff" d="M 222.605469 136.8125 C 221.671875 134.824219 219.300781 133.972656 217.316406 134.902344 L 187.367188 148.957031 L 157.417969 134.902344 C 155.429688 133.972656 153.058594 134.820312 152.128906 136.8125 C 151.191406 138.800781 152.046875 141.171875 154.035156 142.101562 L 185.675781 156.953125 C 186.210938 157.203125 186.789062 157.332031 187.367188 157.332031 C 187.945312 157.332031 188.523438 157.203125 189.058594 156.953125 L 220.699219 142.101562 C 222.6875 141.171875 223.539062 138.800781 222.605469 136.8125 Z M 222.605469 136.8125 " fill-opacity="1" fill-rule="nonzero"/></g><g clip-path="url(#dedbd350dd)"><path fill="#ffffff" d="M 222.605469 151.660156 C 221.671875 149.671875 219.300781 148.824219 217.316406 149.753906 L 187.367188 163.8125 L 157.417969 149.753906 C 155.429688 148.820312 153.058594 149.671875 152.128906 151.660156 C 151.191406 153.652344 152.046875 156.019531 154.035156 156.953125 L 185.675781 171.804688 C 186.210938 172.058594 186.789062 172.183594 187.367188 172.183594 C 187.945312 172.183594 188.523438 172.058594 189.058594 171.804688 L 220.699219 156.953125 C 222.6875 156.019531 223.539062 153.652344 222.605469 151.660156 Z M 222.605469 151.660156 " fill-opacity="1" fill-rule="nonzero"/></g><g clip-path="url(#643928d084)"><path fill="#ffffff" d="M 222.605469 166.515625 C 221.671875 164.527344 219.300781 163.671875 217.316406 164.605469 L 187.367188 178.660156 L 157.417969 164.605469 C 155.429688 163.671875 153.058594 164.527344 152.128906 166.515625 C 151.191406 168.503906 152.046875 170.875 154.035156 171.804688 L 185.675781 186.65625 C 186.210938 186.90625 186.789062 187.035156 187.367188 187.035156 C 187.945312 187.035156 188.523438 186.90625 189.058594 186.65625 L 220.699219 171.804688 C 222.6875 170.875 223.539062 168.503906 222.605469 166.515625 Z M 222.605469 166.515625 " fill-opacity="1" fill-rule="nonzero"/></g><g fill="#ffffff" fill-opacity="1"><g transform="translate(124.794824, 303.959862)"><g><path d="M 0.578125 -3.890625 C 2.25 -1.421875 6.03125 0.4375 10.40625 0.4375 C 16.109375 0.4375 19.25 -3.390625 19.25 -7.234375 C 19.25 -11.125 15.5 -12.65625 12.1875 -14 C 9.5625 -15.0625 7.203125 -16.046875 7.203125 -17.96875 C 7.203125 -20.046875 9.390625 -21.96875 12.21875 -21.96875 C 14.875 -21.96875 17.640625 -20.921875 19.25 -18.703125 L 21.3125 -20.8125 C 19.609375 -23.171875 16.296875 -24.625 12.546875 -24.625 C 7.53125 -24.625 3.96875 -21.3125 3.96875 -17.5625 C 3.96875 -13.78125 7.609375 -12.328125 10.875 -11.015625 C 13.53125 -9.96875 16 -8.953125 16 -6.765625 C 16 -4.734375 14.4375 -2.25 10.65625 -2.25 C 7.234375 -2.25 4.328125 -3.75 2.65625 -6.078125 Z M 0.578125 -3.890625 "/></g></g></g><g fill="#ffffff" fill-opacity="1"><g transform="translate(152.432106, 303.959862)"><g><path d="M 10.953125 0 L 13.203125 -10.25 L 25.828125 -24.265625 L 22.078125 -24.265625 L 12.078125 -12.984375 L 7.015625 -24.265625 L 3.703125 -24.265625 L 10.1875 -10.25 L 7.9375 0 Z M 10.953125 0 "/></g></g></g><g fill="#ffffff" fill-opacity="1"><g transform="translate(182.105785, 303.959862)"><g><path d="M 20.953125 0 L 26.296875 -24.265625 L 23.28125 -24.265625 L 18.875 -4.40625 L 9.3125 -24.265625 L 6.21875 -24.265625 L 0.875 0 L 3.890625 0 L 8.328125 -20.21875 L 18.046875 0 Z M 20.953125 0 "/></g></g></g><g fill="#ffffff" fill-opacity="1"><g transform="translate(214.761253, 303.959862)"><g><path d="M 2.1875 -10.1875 C 2.1875 -3.75 6.953125 0.4375 13.390625 0.4375 C 16.375 0.4375 19.75 -0.625 22.296875 -3.34375 L 20.078125 -5.015625 C 18.15625 -3.203125 15.828125 -2.25 13.5625 -2.25 C 8.546875 -2.25 5.390625 -5.5625 5.390625 -10.328125 C 5.390625 -17.34375 10.4375 -21.96875 15.640625 -21.96875 C 18.703125 -21.96875 21.390625 -20.703125 22.84375 -17.828125 L 25.71875 -18.953125 C 24.046875 -22.40625 20.625 -24.65625 15.828125 -24.65625 C 8.796875 -24.65625 2.1875 -18.953125 2.1875 -10.1875 Z M 2.1875 -10.1875 "/></g></g></g></svg>